# xmcd
# 
# Track frame offsets:
#     187
#     25737
#     46522
#     74765
#     96592
#     108802
#     131627
#     151340
#     172382
#     189012
#     207245
#     220747
#     248002
#     274215
#     292155
# 
# Disc length: 4089
# 
# Revision: 2
# Processed by: cddbd v1.5.2PL0 Copyright (c) Steve Scherf et al.
# Submitted via: fre:ac v1.0.17
# 
DISCID=df0ff70f
DTITLE=Various Artist - Sonia Gaia Collection One (ND-62764)
DYEAR=0
DGENRE=
TTITLE0=Under the Eye
TTITLE1=Andean Dream
TTITLE2=In America
TTITLE3=Butterfly's Joy
TTITLE4=Euphonia
TTITLE5=The Holy Lands
TTITLE6=Airships
TTITLE7=Soft Wave
TTITLE8=Desert Crossing
TTITLE9=Tropical Dream
TTITLE10=Spring Fever
TTITLE11=So Near, So Far
TTITLE12=Lonsome Dove
TTITLE13=Wild Mountain Iris
TTITLE14=Traditional Gaelic Melody
EXTD=
EXTT0=
EXTT1=
EXTT2=
EXTT3=
EXTT4=
EXTT5=
EXTT6=
EXTT7=
EXTT8=
EXTT9=
EXTT10=
EXTT11=
EXTT12=
EXTT13=
EXTT14=
PLAYORDER=
